{"title":"Orcs! 2011 DVD9rip English Klam","uid":6729434,"size":1405202070,"categoryP":"video","categoryS":"movies","magnet":"?xt=urn:btih:a4569903871b94100b324964e131b285909202e3&amp;dn=Orcs%21+2011+DVD9rip+English+Klam&amp;tr=udp%3A%2F%2Ftracker.openbittorrent.com%3A80&amp;tr=udp%3A%2F%2Fopen.demonii.com%3A1337&amp;tr=udp%3A%2F%2Ftracker.coppersurfer.tk%3A6969&amp;tr=udp%3A%2F%2Fexodus.desync.com%3A6969","seeders":0,"leechers":0,"uploader":"Klambake","files":-1,"time":1318032021,"description":"With: Adam Johnson, Brad Johnson en Maclain Nelson\n\nDe Orcs zijn klaar voor de strijd. Ze zijn lelijk, snel op hun teentjes getrapt en zaaien chaos en vernieling over de natuurliefhebbers in de bergen en uiteindelijk de gehele mensheid. Het collectieve lot ligt in de handen van een heldentrio. Een paar stuntelige maar goedbedoelende parkwachters en Katie, een knappe, spirituele, overactieve milieu-\n\nFaced with extinction, two park rangers are forced to defend the national park against hordes of rampaging orcs...\n\n------------------ Dutch Friends ------------------\nYou can find my Friends at: http://www.Film-Test.nl \n------ They got my dutch subs ----- and more ------\n\nGeneral:\n\nComplete name                    : Orcs!\\Orcs!.avi\nFormat                           : AVI\nFormat/Info                      : Audio Video Interleave\nFile size                        : 1.31 GiB\nDuration                         : 1h 16mn\nOverall bit rate                 : 2 443 Kbps\n\nVideo:\n\nFormat                           : MPEG-4 Visual\nFormat profile                   : Simple@L3\nFormat settings, BVOP            : No\nFormat settings, QPel            : No\nFormat settings, GMC             : No warppoints\nFormat settings, Matrix          : Default (H.263)\nCodec ID                         : XVID\nCodec ID/Hint                    : XviD\nDuration                         : 1h 16mn\nBit rate                         : 2 048 Kbps\nWidth                            : 704 pixels\nHeight                           : 396 pixels\nDisplay aspect ratio             : 16:9\nFrame rate                       : 25.000 fps\nColor space                      : YUV\nChroma subsampling               : 4:2:0\nBit depth                        : 8 bits\nScan type                        : Progressive\nCompression mode                 : Lossy\nBits/(Pixel*Frame)               : 0.294\nStream size                      : 1.10 GiB (84%)\nWriting library                  : XviD 1.1.2 (UTC 2006-11-01)\n\nAudio:\n\nFormat                           : AC-3\nFormat/Info                      : Audio Coding 3\nMode extension                   : CM (complete main)\nCodec ID                         : 2000\nDuration                         : 1h 16mn\nBit rate mode                    : Constant\nBit rate                         : 384 Kbps\nChannel(s)                       : 6 channels\nChannel positions                : Front: L C R, Side: L R, LFE\nSampling rate                    : 48.0 KHz\nBit depth                        : 16 bits\nCompression mode                 : Lossy\nStream size                      : 211 MiB (16%)\nAlignment                        : Aligned on interleaves\nInterleave, duration             : 32 ms (0.80 video frame)\nInterleave, preload duration     : 672 ms\n\n","torrent":{"xt":"urn:btih:a4569903871b94100b324964e131b285909202e3","amp;dn":"Orcs%21+2011+DVD9rip+English+Klam","amp;tr":["udp%3A%2F%2Ftracker.openbittorrent.com%3A80","udp%3A%2F%2Fopen.demonii.com%3A1337","udp%3A%2F%2Ftracker.coppersurfer.tk%3A6969","udp%3A%2F%2Fexodus.desync.com%3A6969"],"infoHash":"a4569903871b94100b324964e131b285909202e3","infoHashBuffer":{"type":"Buffer","data":[164,86,153,3,135,27,148,16,11,50,73,100,225,49,178,133,144,146,2,227]},"announce":[],"urlList":[]}}